<svg width="60" height="47" viewBox="0 0 60 47" fill="none" xmlns="http://www.w3.org/2000/svg">
<path fill-rule="evenodd" clip-rule="evenodd" d="M10.9173 21.7275L10.716 23.0883L22.42 23.1031L22.4215 23.1031C23.4976 23.1031 24.3575 23.9635 24.3575 24.9949L24.3575 43.9181C24.3575 44.9491 23.4981 45.8099 22.4196 45.8099L3.13788 45.8099C2.0582 45.8099 1.19886 44.9482 1.20001 43.9194L1.2 24.9931C1.2 9.48029 14.43 2.14988 14.9801 1.85378L15.3599 1.64895L19.3254 10.0472L19.0164 10.2191C12.8905 13.6241 11.3159 19.0332 10.9173 21.7275ZM18.2812 9.68271L14.9781 2.68966L13.8109 3.48951C10.3426 5.86628 1.99578 12.844 1.99493 24.9931L1.99493 45.1114L23.6251 45.0505L23.5609 23.8019L9.93216 23.8376C9.92892 23.7365 9.9268 23.6285 9.92626 23.5139C9.92213 22.6468 10.0079 21.4133 10.3723 19.9804C11.096 17.1347 12.9293 13.4519 17.4644 10.2579L18.2812 9.68271Z" fill="#D89D81"/>
<path fill-rule="evenodd" clip-rule="evenodd" d="M40.5597 21.7275L40.3584 23.0883L52.0625 23.1031L52.064 23.1031C53.1401 23.1031 54 23.9635 54 24.9949L54 43.9181C54 44.9491 53.1405 45.8099 52.0621 45.8099L32.7822 45.8099C31.7028 45.8099 30.8424 44.9481 30.8424 43.9181L30.8424 24.9931C30.8424 9.48029 44.0727 2.1497 44.6228 1.8536L45.0037 1.64844L48.9679 10.0472L48.6585 10.2193C42.5329 13.6243 40.9583 19.0332 40.5597 21.7275ZM47.9195 9.67876L44.6208 2.68905L43.4531 3.48969C39.9871 5.86621 31.6382 12.8439 31.6374 24.9931L31.6374 45.1114L53.2676 45.0505L53.2033 23.8019L39.5616 23.8377C39.5577 23.7394 39.5548 23.6344 39.5533 23.5231C39.5425 22.6688 39.6197 21.4499 39.9778 20.0274C40.6889 17.2036 42.5204 13.5177 47.1094 10.2548L47.9195 9.67876Z" fill="#D89D81"/>
</svg>
